<svg id="Layer_1" data-name="Layer 1" xmlns="http://www.w3.org/2000/svg" xmlns:xlink="http://www.w3.org/1999/xlink" viewBox="0 0 80 80"><defs><style>.cls-1{fill:url(#linear-gradient);}.cls-2{fill:url(#linear-gradient-2);}.cls-3{fill:url(#linear-gradient-3);}</style><linearGradient id="linear-gradient" x1="-6.04" y1="59.72" x2="54.22" y2="2.87" gradientUnits="userSpaceOnUse"><stop offset="0" stop-color="#00d2ff"/><stop offset="1" stop-color="#3a7bd5"/></linearGradient><linearGradient id="linear-gradient-2" x1="3.92" y1="70.27" x2="64.17" y2="13.42" xlink:href="#linear-gradient"/><linearGradient id="linear-gradient-3" x1="14.21" y1="81.17" x2="74.46" y2="24.32" xlink:href="#linear-gradient"/></defs><title>collection-icon</title><path class="cls-1" d="M22.81,6.55H8.68a1,1,0,0,0-1,1V70.79a1,1,0,0,0,1,1H22.81a1,1,0,0,0,1-1V7.55A1,1,0,0,0,22.81,6.55ZM9.68,13.92H21.81v6.85H9.68ZM21.81,69.79H9.68v-47H21.81ZM9.68,11.92V8.55H21.81v3.37Z"/><path class="cls-2" d="M35.72,17.45H26.38a1,1,0,0,0-1,1V70.88a1,1,0,0,0,1,1h9.34a1,1,0,0,0,1-1V18.45A1,1,0,0,0,35.72,17.45ZM27.38,23.9h7.34v5.33H27.38Zm7.34,46H27.38V31.23h7.34Zm-7.34-48V19.45h7.34V21.9Z"/><path class="cls-3" d="M64.28,17.76A1,1,0,0,0,63.11,17l-9.17,1.77a.76.76,0,0,0-.21.08v-5.9a1,1,0,0,0-1-1H40a1,1,0,0,0-1,1V71a1,1,0,0,0,1,1H52.73a1,1,0,0,0,1-1V23l9.33,48.42a1,1,0,0,0,.42.64,1,1,0,0,0,.56.17l.19,0,9.17-1.77a1,1,0,0,0,.8-1.17ZM41,13.92H51.73v2.92H41Zm10.74,4.92V25H41V18.84Zm0,51.12H41V27H51.73Zm5.1-41.51-.69-3.57,7.21-1.39.38,2,.63,3.25-7.21,1.39Zm5.68-9.33.46,2.4-7.21,1.39-.46-2.4ZM64.83,70l-7.3-37.95,7.2-1.39,7.31,38Z"/></svg>