<svg id="Layer_1" data-name="Layer 1" xmlns="http://www.w3.org/2000/svg" viewBox="0 0 80 80"><defs><style>.cls-1{fill:#fff;}</style></defs><title>discover-white-icon</title><path class="cls-1" d="M46.76,72.94c.08-.16.24-.41.2-.48s-.28,0-.36,0c-.13-.2-.22-.39-.34-.54s0-.22.14-.42a3.06,3.06,0,0,1,1-.7,2.51,2.51,0,0,0,.74-.6,8,8,0,0,1,1-.88c.22-.19.45-.33.42-.63a.45.45,0,0,1,.14-.22c.16-.15.33-.26.49-.4a1,1,0,0,0,.22-.24.14.14,0,0,0-.06-.17c-.11-.07,0-.26.05-.38a1.7,1.7,0,0,0,.3-.94c.42-.36.83-.74,1.22-1.11a.43.43,0,0,0,.15-.53c.42-.44.82-.88,1.2-1.29a2.67,2.67,0,0,1,.43-.34,1.18,1.18,0,0,0,.5-.63,1.55,1.55,0,0,0,0-.29c.32-.37.68-.77,1-1.2.51-.63,1-1.27,1.44-1.9a13.85,13.85,0,0,0,1-1.39,3.54,3.54,0,0,0,.34-.58c0-.07.09-.17.11-.15.24.16.28-.28.41-.42a8.43,8.43,0,0,0,.63-1,30.25,30.25,0,0,0-4.17-6.77c0,.21-1.11-1-1-1.07-.21-.39-.89-1-1-.94a1.88,1.88,0,0,1-.27-.75c0-.31-.23-.35-.31-.45L52.11,45c.06-.08.22.42.27.08-.22-.19-.44-.39-.67-.56a.92.92,0,0,1-.35-.34c-.1-.19-.32-.32-.49-.49a3.64,3.64,0,0,1-.36-.41.62.62,0,0,1-.08-.24l.16,0,.34.1a2.72,2.72,0,0,0-.07-.33l-.41-.47V42.3c.23.08.45.16.28-.25l1.26.09-.62-.48v-.07L52,42c-.08-.26-.15-.5-.22-.71l.63-.37L52,40.67v-.06l.38.15c.06-.27.16-.47.55-.27a.61.61,0,0,0,.29,0s.06,0,.06-.06a.31.31,0,0,0-.08-.15,2.42,2.42,0,0,0-.26-.2,1.55,1.55,0,0,1,.24-.38s.17,0,.26,0c.55.33,1.08.68,1.61,1-.34-.29-.69-.57-1-.85.23-.26.24-.26.54-.16,0-.09,0-.17-.12-.35,1,.89,1.85,1.73,2.65,2.57-.11-.2-.29-.39-.24-.61,0,0-.14-.22-.23-.32a11.66,11.66,0,0,0-2.08-2,3.21,3.21,0,0,1-.22-.25,18.18,18.18,0,0,1,3.45,3.45l-.24-.17a1.73,1.73,0,0,0,.11.17c.62.77,1.2,1.53,1.73,2.29,1,1.37,1.81,2.7,2.59,4,.38.63.72,1.27,1.07,1.88.17.31.32.41.45,0a1.6,1.6,0,0,1,.5-.71.86.86,0,0,1,.61-.3c.09,0,.18-.13.23-.24a.84.84,0,0,1,.58-.46,2,2,0,0,0,.33-.15l.25-.11.05,0c0-.24.25-.2.36-.3a1,1,0,0,1,.72-.32c.17,0,.31-.15.47-.22s.38-.11.58-.17a1.52,1.52,0,0,0,.28-.09s0-.05.09-.06c.33-.07.67-.13,1-.17l.28-.06a7.76,7.76,0,0,0,.86-.11,3.46,3.46,0,0,1,1.64.09,2.67,2.67,0,0,1,.62.48,1.13,1.13,0,0,1,.15.21l-.4,0v0a1,1,0,0,0,.16.12l.7.42a.23.23,0,0,1,.07.07c-.09.16.27.48.09.6a.37.37,0,0,1-.2.09c-.17,0-.36-.05-.54-.06s-.3,0-.27.16-.15.07-.23.1l-.08,0,0,0a13.26,13.26,0,0,1,1.35.15c0,.13.15.19.29.29a8,8,0,0,1,.62.54s0,.07,0,.11,0,.23.1.35.12.28-.15.33l-.07,0,.25.19s.16.11.15.12a.14.14,0,0,1-.12.09c-.18,0-.38-.08-.56-.1s-.54-.09-.7,0-.41,0-.6-.09h-.08l.07.14,0,0-.24,0c-.06-.19-.17-.12-.3-.12.15.19,0,.22-.13.25a.8.8,0,0,0-.25.11.31.31,0,0,1-.14.07c-.42.11-.82.27-1.23.42s-.64.45-1,.62a4.24,4.24,0,0,0-.78.44c-.15.11-.25.28-.4.39s-.53.35-.79.55a4.72,4.72,0,0,0-.41.37s-.06.12-.1.17-.15.24-.23.23-.26.19-.38.29-.18.22-.29.31-.1.15,0,.26c.32.52.65,1,1,1.5a15.66,15.66,0,0,0,2.18,2.43c.24.22.41.5.64.72a8.07,8.07,0,0,0,1.23,1c.31.2.64.38,1,.55l.81.38c.06,0,0,.11.08.16a1.47,1.47,0,0,1-.26,0,3.15,3.15,0,0,1-.64-.13.78.78,0,0,0-.58.11c-.12,0-.2.12-.12.22a1.9,1.9,0,0,0,.89.46c.09,0,.22,0,.15.2a.3.3,0,0,1-.36.19l0,.06a1.21,1.21,0,0,0,.14.1l.35.16s0,.09,0,.14,0,.22,0,.32-.07.22-.25.24l-.54.07-.61,1a.58.58,0,0,1-.55.33c-.24,0-.48,0-.7,0a1,1,0,0,1-.41-.12.31.31,0,0,0-.38,0,.29.29,0,0,1-.38,0,4.87,4.87,0,0,0-.85-.44,3.77,3.77,0,0,0-.76-.12c-.07,0-.17.06-.25.09s-.2.11-.24.09c-.26-.16-.59-.18-.82-.41-.38-.37-.82-.68-1.21-1-.08-.07-.14-.16-.22-.22a12.32,12.32,0,0,1-1-.94,11.24,11.24,0,0,1-.87-1.13c-.18-.27-.36-.57-.53-.88s-.16-.19-.29,0c-.35.45-.7.9-1.07,1.34a4.31,4.31,0,0,1-.82.83,2.24,2.24,0,0,0-.71.85,4.46,4.46,0,0,1-.68.76c-.15.17-.32.33-.48.49l-.27.25a.91.91,0,0,0-.17.23.71.71,0,0,1-.34.41.5.5,0,0,0-.17.16,3.1,3.1,0,0,1-1,1,.8.8,0,0,0-.16.16,1.32,1.32,0,0,1-.12.16c-.3.1-.54.45-.8.7s-.85.47-1.24,1l-.07,0c-.46.34-.93.67-1.42,1s-1.06.69-1.61,1c-.28.16-.57.29-.85.46s-.27.23-.41.3c-.69.37-1.42.71-2.18,1-.31.13-.48.06-.52-.15Z"/><path class="cls-1" d="M52.43,57.07l.49-.11,2-.48.48-.13-.52-1.93-.48.12c-.09,0-.77.2-1.91.47l-.48.11Z"/><path class="cls-1" d="M51.5,9,52,9l.16-2-.5,0c-1.33-.11-2.71-.17-4.1-.18h-.5l0,2h.5C48.88,8.81,50.21,8.87,51.5,9Z"/><path class="cls-1" d="M57.78,36.71l.5.07.26-2-.5-.07A28.81,28.81,0,0,1,54.22,34l-.48-.13-.53,1.92.48.14A31.24,31.24,0,0,0,57.78,36.71Z"/><path class="cls-1" d="M44.93,58.54c1.45-.24,2.8-.49,4-.73l.49-.1-.38-2-.49.1c-1.19.23-2.52.48-3.95.72l-.49.08.33,2Z"/><path class="cls-1" d="M39.57,9.17c1.36-.14,2.7-.24,4-.3l.5,0-.1-2-.49,0c-1.31.06-2.68.16-4.09.3l-.49.05.19,2Z"/><path class="cls-1" d="M49.76,34.56l.47.18L51,32.88l-.47-.18c-1.18-.47-2.4-1-3.62-1.6l-.45-.22-.88,1.8.45.22C47.26,33.51,48.52,34.08,49.76,34.56Z"/><path class="cls-1" d="M8.11,50l-.24-.44-1.76.95.24.44A13.31,13.31,0,0,0,9,54.34l.37.34,1.36-1.46-.37-.34A11.47,11.47,0,0,1,8.11,50Z"/><path class="cls-1" d="M71.27,19l.22.45,1.79-.87-.21-.45a16,16,0,0,0-2.4-3.57l-.33-.38-1.5,1.33.33.37A14.24,14.24,0,0,1,71.27,19Z"/><path class="cls-1" d="M72.41,22.57a11.5,11.5,0,0,1,0,3.7l-.08.49,2,.33.08-.5a13.19,13.19,0,0,0,.17-2.09,13.06,13.06,0,0,0-.19-2.25l-.08-.5-2,.33Z"/><path class="cls-1" d="M42.45,31.17l.47.17.7-1.87-.47-.18A17.32,17.32,0,0,0,39,28.35l-.49-.05-.21,2,.5.05A14.84,14.84,0,0,1,42.45,31.17Z"/><path class="cls-1" d="M66.34,13.39l.41.28L67.88,12l-.41-.28A19.22,19.22,0,0,0,64.29,10l-.55-.24-.46-.19-.77,1.84,1,.42A17.21,17.21,0,0,1,66.34,13.39Z"/><path class="cls-1" d="M70.07,34A11.59,11.59,0,0,0,73,30.72l.25-.43-1.73-1-.25.43a9.65,9.65,0,0,1-2.39,2.74l-.39.31,1.23,1.58Z"/><path class="cls-1" d="M62,36.88a16.2,16.2,0,0,0,4.22-.8l.47-.16L66.06,34l-.48.16a14.29,14.29,0,0,1-3.7.69l-.5,0,.13,2Z"/><path class="cls-1" d="M59.27,10.3l.48.14.53-1.93-.48-.13a37.36,37.36,0,0,0-4-.89l-.5-.09-.33,2,.49.08A38.3,38.3,0,0,1,59.27,10.3Z"/><path class="cls-1" d="M28.18,60.05h.5c1.31,0,2.69,0,4.1-.11l.5,0-.11-2-.5,0c-1.38.07-2.72.11-4,.11h-.5Z"/><path class="cls-1" d="M12.51,56.82a22.74,22.74,0,0,0,3.89,1.65l.48.16.61-1.91L17,56.57a21.4,21.4,0,0,1-3.54-1.5L13,54.83l-.95,1.75Z"/><path class="cls-1" d="M16,35.81c1.16-.58,2.38-1.13,3.63-1.64l.46-.2-.77-1.84-.46.19c-1.29.53-2.55,1.1-3.74,1.69l-.45.22.89,1.8Z"/><path class="cls-1" d="M11.47,36a19.43,19.43,0,0,0-2.89,2.07,6.38,6.38,0,0,0-.53.51l-.35.35,1.43,1.4L9.48,40l.44-.42a17.43,17.43,0,0,1,2.59-1.84l.43-.26-1-1.71Z"/><path class="cls-1" d="M36.85,59.62c1.3-.12,2.66-.28,4-.47l.5-.07-.27-2-.5.07c-1.35.18-2.69.34-4,.46l-.5,0,.19,2Z"/><path class="cls-1" d="M15.68,13.54a26.22,26.22,0,0,0,4.19-.47l.49-.1L20,11l-.5.1a23.76,23.76,0,0,1-3.84.43h-.5l0,2Z"/><path class="cls-1" d="M5.06,46.7l0,.5,2-.18,0-.5q0-.36,0-.72A7.94,7.94,0,0,1,7.53,43l.18-.47-1.88-.7-.17.47A9.78,9.78,0,0,0,5,45.8C5,46.1,5,46.4,5.06,46.7Z"/><path class="cls-1" d="M31,30.75a33.83,33.83,0,0,1,3.9-.47l.5,0-.12-2-.49,0a35.64,35.64,0,0,0-4.13.5l-.49.08.34,2Z"/><path class="cls-1" d="M31.66,10.3c1.33-.25,2.66-.46,3.94-.65l.5-.07-.29-2-.49.07c-1.33.19-2.68.42-4,.67l-.49.09.37,2Z"/><path class="cls-1" d="M23.84,12.05c1.26-.33,2.58-.65,3.89-.94l.49-.11-.44-2-.49.11c-1.32.3-2.65.62-4,1l-.48.12.5,1.94Z"/><path class="cls-1" d="M23.33,32.76c1.28-.44,2.56-.83,3.8-1.16l.49-.12-.52-1.94-.48.13c-1.29.34-2.62.75-3.94,1.2l-.47.16.65,1.89Z"/><path class="cls-1" d="M20,59.36l.5.08a41.08,41.08,0,0,0,4.11.48l.49,0,.15-2-.5,0c-1.38-.09-2.7-.25-3.92-.45l-.5-.08Z"/><path class="cls-1" d="M9.24,16.08a3.91,3.91,0,1,1,3.9-3.9A3.91,3.91,0,0,1,9.24,16.08Zm0-6.81a2.91,2.91,0,1,0,2.9,2.91A2.92,2.92,0,0,0,9.24,9.27Z"/></svg>