<svg id="Layer_1" data-name="Layer 1" xmlns="http://www.w3.org/2000/svg" viewBox="0 0 80 80"><defs><style>.cls-1{fill:#fff;}</style></defs><title>wishlist-white-icon</title><rect class="cls-1" x="15.65" y="39.02" width="35.38" height="1.86"/><path class="cls-1" d="M15.65,47.67v1.86H18a10.25,10.25,0,0,1,.7-1.86Z"/><path class="cls-1" d="M48.64,49.53H51V47.67H47.94A10.25,10.25,0,0,1,48.64,49.53Z"/><path class="cls-1" d="M51,58.19V56.33h-3a8.79,8.79,0,0,1-1.25,1.86Z"/><path class="cls-1" d="M15.65,56.33v1.86h4.21a11.77,11.77,0,0,1-1.14-1.86Z"/><path class="cls-1" d="M38.1,66.84H51V65H40L38.66,66.3Z"/><path class="cls-1" d="M15.65,65v1.86H28.22L26.4,65Z"/><path class="cls-1" d="M44.13,47.34a7.09,7.09,0,0,0-5.21-2.29,7.45,7.45,0,0,0-5.57,2.66,2,2,0,0,1-.31-.22,6.93,6.93,0,0,0-5.32-2.44,7,7,0,0,0-4.95,2c-2.93,2.92-2.76,7.2.4,10.38,1.23,1.24,2.47,2.46,3.7,3.71,2.11,2.14,4.2,4.3,6.21,6.35C37,63.7,40.85,60.15,44.43,56.34,46.74,53.89,46.38,49.86,44.13,47.34Z"/><path class="cls-1" d="M38.92,45.05a7.45,7.45,0,0,0-5.57,2.66,2,2,0,0,1-.31-.22,6.93,6.93,0,0,0-5.32-2.44,7,7,0,0,0-4.95,2c-2.93,2.92-2.76,7.2.4,10.38,1.23,1.24,2.47,2.46,3.7,3.71,2.11,2.14,4.2,4.3,6.21,6.35C37,63.7,40.85,60.15,44.43,56.34c2.31-2.45,2-6.48-.3-9A7.09,7.09,0,0,0,38.92,45.05Z"/><path class="cls-1" d="M70.3,19.87a14.31,14.31,0,0,0-26-8.23H9.7V74.45H57V34.15A14.34,14.34,0,0,0,70.3,19.87Zm-26.64,0A12.32,12.32,0,1,1,56,32.2,12.33,12.33,0,0,1,43.66,19.87Zm-32,52.58V13.64H43.1a14.19,14.19,0,0,0-1.44,6.23,13.86,13.86,0,0,0,.13,1.84H15.65v1.86H42.16a14.33,14.33,0,0,0,4.1,6.8H15.65v1.86H48.77A14.23,14.23,0,0,0,55,34.15v38.3Z"/><path class="cls-1" d="M58.27,28V22h5.81V17.53H58.22V11.74h-4.5V17.6H47.87v4.53h5.86V28Z"/></svg>