<svg id="Layer_1" data-name="Layer 1" xmlns="http://www.w3.org/2000/svg" xmlns:xlink="http://www.w3.org/1999/xlink" viewBox="0 0 80 80"><defs><style>.cls-1{fill:url(#linear-gradient);}.cls-2{fill:url(#linear-gradient-2);}.cls-3{fill:url(#linear-gradient-3);}.cls-4{fill:url(#linear-gradient-4);}.cls-5{fill:url(#linear-gradient-5);}.cls-6{fill:url(#linear-gradient-6);}.cls-7{fill:url(#linear-gradient-7);}.cls-8{fill:url(#linear-gradient-8);}.cls-9{fill:url(#linear-gradient-10);}.cls-10{fill:url(#linear-gradient-11);}</style><linearGradient id="linear-gradient" x1="3.39" y1="72.39" x2="62.96" y2="7.87" gradientUnits="userSpaceOnUse"><stop offset="0" stop-color="#00d2ff"/><stop offset="1" stop-color="#3a7bd5"/></linearGradient><linearGradient id="linear-gradient-2" x1="-1.22" y1="68.13" x2="58.35" y2="3.62" xlink:href="#linear-gradient"/><linearGradient id="linear-gradient-3" x1="16.41" y1="84.42" x2="75.99" y2="19.91" xlink:href="#linear-gradient"/><linearGradient id="linear-gradient-4" x1="20.76" y1="88.43" x2="80.33" y2="23.92" xlink:href="#linear-gradient"/><linearGradient id="linear-gradient-5" x1="3.6" y1="72.58" x2="63.17" y2="8.07" xlink:href="#linear-gradient"/><linearGradient id="linear-gradient-6" x1="22.85" y1="90.36" x2="82.42" y2="25.85" xlink:href="#linear-gradient"/><linearGradient id="linear-gradient-7" x1="10.17" y1="78.65" x2="69.74" y2="14.14" xlink:href="#linear-gradient"/><linearGradient id="linear-gradient-8" x1="9.39" y1="77.93" x2="68.96" y2="13.42" xlink:href="#linear-gradient"/><linearGradient id="linear-gradient-10" x1="4.93" y1="73.81" x2="64.5" y2="9.3" xlink:href="#linear-gradient"/><linearGradient id="linear-gradient-11" x1="5.57" y1="74.4" x2="65.15" y2="9.89" xlink:href="#linear-gradient"/></defs><title>wishlist-icon</title><rect class="cls-1" x="15.65" y="39.02" width="35.38" height="1.86"/><path class="cls-2" d="M15.65,47.67v1.86H18a10.25,10.25,0,0,1,.7-1.86Z"/><path class="cls-3" d="M48.64,49.53H51V47.67H47.94A10.25,10.25,0,0,1,48.64,49.53Z"/><path class="cls-4" d="M51,58.19V56.33h-3a8.79,8.79,0,0,1-1.25,1.86Z"/><path class="cls-5" d="M15.65,56.33v1.86h4.21a11.77,11.77,0,0,1-1.14-1.86Z"/><path class="cls-6" d="M38.1,66.84H51V65H40L38.66,66.3Z"/><path class="cls-7" d="M15.65,65v1.86H28.22L26.4,65Z"/><path class="cls-8" d="M44.13,47.34a7.09,7.09,0,0,0-5.21-2.29,7.45,7.45,0,0,0-5.57,2.66,2,2,0,0,1-.31-.22,6.93,6.93,0,0,0-5.32-2.44,7,7,0,0,0-4.95,2c-2.93,2.92-2.76,7.2.4,10.38,1.23,1.24,2.47,2.46,3.7,3.71,2.11,2.14,4.2,4.3,6.21,6.35C37,63.7,40.85,60.15,44.43,56.34,46.74,53.89,46.38,49.86,44.13,47.34Z"/><path class="cls-8" d="M38.92,45.05a7.45,7.45,0,0,0-5.57,2.66,2,2,0,0,1-.31-.22,6.93,6.93,0,0,0-5.32-2.44,7,7,0,0,0-4.95,2c-2.93,2.92-2.76,7.2.4,10.38,1.23,1.24,2.47,2.46,3.7,3.71,2.11,2.14,4.2,4.3,6.21,6.35C37,63.7,40.85,60.15,44.43,56.34c2.31-2.45,2-6.48-.3-9A7.09,7.09,0,0,0,38.92,45.05Z"/><path class="cls-9" d="M70.3,19.87a14.31,14.31,0,0,0-26-8.23H9.7V74.45H57V34.15A14.34,14.34,0,0,0,70.3,19.87Zm-26.64,0A12.32,12.32,0,1,1,56,32.2,12.33,12.33,0,0,1,43.66,19.87Zm-32,52.58V13.64H43.1a14.19,14.19,0,0,0-1.44,6.23,13.86,13.86,0,0,0,.13,1.84H15.65v1.86H42.16a14.33,14.33,0,0,0,4.1,6.8H15.65v1.86H48.77A14.23,14.23,0,0,0,55,34.15v38.3Z"/><path class="cls-10" d="M58.27,28V22h5.81V17.53H58.22V11.74h-4.5V17.6H47.87v4.53h5.86V28Z"/></svg>